<svg width="40" height="40" viewBox="0 0 40 40" fill="none" xmlns="http://www.w3.org/2000/svg">
<g clip-path="url(#clip0)">
<circle cx="20.0002" cy="20" r="16.6667" fill="white"/>
<path d="M14.6847 18.2746C15.6082 18.2746 16.3568 17.526 16.3568 16.6026C16.3568 15.6791 15.6082 14.9305 14.6847 14.9305C13.7613 14.9305 13.0127 15.6791 13.0127 16.6026C13.0127 17.526 13.7613 18.2746 14.6847 18.2746Z" fill="#D50000"/>
<path d="M25.3068 25.0612C26.2302 25.0612 26.9788 24.3126 26.9788 23.3892C26.9788 22.4658 26.2302 21.7172 25.3068 21.7172C24.3834 21.7172 23.6348 22.4658 23.6348 23.3892C23.6348 24.3126 24.3834 25.0612 25.3068 25.0612Z" fill="#D50000"/>
<path d="M39.0928 22.2089L38.4863 21.3811C37.8306 20.4795 37.8142 19.2582 38.4617 18.3402L39.0518 17.5042C39.9534 16.2256 39.5354 14.447 38.1502 13.7012L37.2486 13.2176C36.2651 12.693 35.7241 11.5947 35.9126 10.4882L36.0848 9.48007C36.347 7.93918 35.1914 6.51303 33.6259 6.44746L32.6013 6.40647C31.4866 6.3573 30.5195 5.60324 30.208 4.52953L29.9212 3.54598C29.4868 2.03786 27.8311 1.25922 26.3886 1.88213L25.446 2.28375C24.4215 2.72635 23.2248 2.46407 22.479 1.62805L21.7987 0.865798C20.7577 -0.298072 18.93 -0.289876 17.8972 0.898583L17.2251 1.66903C16.4875 2.51325 15.299 2.79192 14.2663 2.36571L13.3155 1.97229C11.8648 1.37397 10.2255 2.1854 9.80752 3.69351L9.53704 4.68526C9.24198 5.76717 8.29121 6.53761 7.17652 6.59499L6.15199 6.65236C4.5865 6.74252 3.45541 8.18506 3.74228 9.72596L3.9308 10.7341C4.1357 11.8324 3.61114 12.9389 2.63579 13.4799L1.74239 13.9798C0.373617 14.7421 -0.0198043 16.5289 0.906374 17.7911L1.5129 18.6189C2.1686 19.5205 2.18499 20.7417 1.53749 21.6597L0.947355 22.4957C0.0457658 23.7744 0.463775 25.553 1.84894 26.2988L2.75053 26.7824C3.73409 27.307 4.27504 28.4053 4.08653 29.5118L3.9144 30.5199C3.65212 32.0608 4.8078 33.4869 6.37328 33.5525L7.39782 33.5935C8.51251 33.6427 9.47967 34.3967 9.79113 35.4704L10.078 36.454C10.5124 37.9621 12.168 38.7407 13.6106 38.1178L14.5532 37.7162C15.5777 37.2736 16.7743 37.5359 17.5202 38.3719L18.2005 39.1342C19.2496 40.298 21.0774 40.2898 22.1019 39.1014L22.774 38.3309C23.5117 37.4867 24.7001 37.208 25.7329 37.6343L26.6836 38.0277C28.1344 38.626 29.7736 37.8146 30.1916 36.3065L30.4621 35.3147C30.7572 34.2328 31.7079 33.4624 32.8226 33.405L33.8472 33.3476C35.4127 33.2574 36.5437 31.8149 36.2569 30.274L36.0684 29.2659C35.8635 28.1676 36.388 27.0611 37.3634 26.5201L38.2568 26.0201C39.6255 25.2661 40.019 23.4793 39.0928 22.2089ZM10.6435 16.6026C10.6435 14.3732 12.4467 12.5701 14.6761 12.5701C16.9055 12.5701 18.7087 14.3732 18.7087 16.6026C18.7087 18.832 16.9055 20.6352 14.6761 20.6352C12.4467 20.6352 10.6435 18.8238 10.6435 16.6026ZM15.4547 27.0037C15.1105 27.4217 14.4876 27.4791 14.0696 27.1348C13.6516 26.7906 13.5942 26.1677 13.9384 25.7497L24.5198 13.0045C24.8641 12.5865 25.487 12.5291 25.905 12.8733C26.323 13.2176 26.3804 13.8405 26.0361 14.2585L15.4547 27.0037ZM25.3067 27.4217C23.0773 27.4217 21.2741 25.6185 21.2741 23.3891C21.2741 21.1598 23.0773 19.3566 25.3067 19.3566C27.536 19.3566 29.3392 21.1598 29.3392 23.3891C29.3392 25.6185 27.536 27.4217 25.3067 27.4217Z" fill="#D50000"/>
</g>
<defs>
<clipPath id="clip0">
<path d="M0 0H40V40H0V0Z" fill="white"/>
</clipPath>
</defs>
</svg>
